<?xml version="1.0" encoding="utf-8"?>
<!-- Generator: Adobe Illustrator 16.0.3, SVG Export Plug-In . SVG Version: 6.00 Build 0)  -->
<!DOCTYPE svg PUBLIC "-//W3C//DTD SVG 1.1//EN" "http://www.w3.org/Graphics/SVG/1.1/DTD/svg11.dtd">
<svg version="1.1"
	 id="svg119" xmlns:sodipodi="http://sodipodi.sourceforge.net/DTD/sodipodi-0.dtd" xmlns:inkscape="http://www.inkscape.org/namespaces/inkscape" xmlns:svg="http://www.w3.org/2000/svg" xmlns:cc="http://creativecommons.org/ns#" xmlns:dc="http://purl.org/dc/elements/1.1/" xmlns:rdf="http://www.w3.org/1999/02/22-rdf-syntax-ns#" sodipodi:docname="mygene_info_logo.svg" inkscape:version="0.92.1 r"
	 xmlns="http://www.w3.org/2000/svg" xmlns:xlink="http://www.w3.org/1999/xlink" x="0px" y="0px" width="100px" height="100px"
	 viewBox="176.771 13.352 100 100" enable-background="new 176.771 13.352 100 100" xml:space="preserve">
<g>
	<g id="g70_2_" transform="matrix(0.28357709,0,0,-0.28357709,53.3951,168.27097)">
		<path id="path72_2_" inkscape:connector-curvature="0" fill="#FFFFFF" d="M611.847,543.401
			c51.145-1.343,101.265-11.051,148.733-33.031c3.891-143.702-53.033-242.84-148.733-313.808V543.401z"/>
	</g>
	<g id="g70_1_" transform="matrix(0.28357709,0,0,-0.28357709,53.3951,168.27097)">
		<path id="path72_1_" inkscape:connector-curvature="0" fill="#FFFFFF" d="M611.847,543.407
			c-51.021-1.343-101.024-11.051-148.377-33.029c-3.881-143.709,52.906-242.847,148.377-313.815V543.407z"/>
	</g>
</g>
<sodipodi:namedview  bordercolor="#666666" inkscape:cy="-329.81701" showgrid="false" pagecolor="#ffffff" inkscape:zoom="0.7" fit-margin-top="5" fit-margin-left="5" inkscape:cx="-459.06637" borderopacity="1.0" id="base" inkscape:document-units="mm" fit-margin-right="5" inkscape:current-layer="layer1" inkscape:window-width="2560" inkscape:window-height="1385" inkscape:window-x="0" inkscape:window-y="55" fit-margin-bottom="5" inkscape:pageshadow="2" inkscape:pageopacity="0.0" inkscape:window-maximized="1">
	</sodipodi:namedview>
<g id="g166" transform="matrix(0.28357709,0,0,-0.28357709,106.32652,168.27097)">
	<path id="path168" inkscape:connector-curvature="0" fill="#2A7FE2" d="M425.189,543.407
		c-51.019-1.343-101.022-11.051-148.375-33.029c-3.881-143.705,52.897-242.843,148.375-313.812V543.407z"/>
</g>
<g id="g182">
	<g id="g180" transform="translate(320,295.0371)">
		<path id="path178-0" inkscape:connector-curvature="0" fill="#669BE8" d="M-93.1-280.864c14.468,0.381,28.649,3.134,42.075,9.366
			c1.102,40.751-15.002,68.865-42.075,88.99V-280.864z"/>
	</g>
</g>
<g>
	<g id="g128_1_" transform="matrix(0.35277777,0,0,-0.35277777,105.45677,110.73205)">
		<path id="path130_1_" inkscape:connector-curvature="0" fill="#3366CC" d="M311.932,201.172"/>
	</g>
	<g id="g132_1_" transform="matrix(0.35277777,0,0,-0.35277777,109.80895,115.08424)">
		<path id="path134_1_" inkscape:connector-curvature="0" fill="#3366CC" d="M343.666,169.443"/>
	</g>
	<g id="g136_1_" transform="matrix(0.35277777,0,0,-0.35277777,103.81586,118.94691)">
		<path id="path138_1_" inkscape:connector-curvature="0" fill="#3366CC" d="M299.97,141.28v0.025c0,0.011,0,0.017-0.008,0.028
			L299.97,141.28z"/>
	</g>
	<g id="g140_1_" transform="matrix(0.35277777,0,0,-0.35277777,109.41998,113.34346)">
		<path id="path142_1_" inkscape:connector-curvature="0" fill="#3366CC" d="M340.824,182.132c0,0.015,0,0.019-0.005,0.032v0.018
			L340.824,182.132z"/>
	</g>
	<g id="g144" transform="matrix(0.35277777,0,0,-0.35277777,105.45677,110.83196)">
		<path id="path146" inkscape:connector-curvature="0" fill="#3366CC" d="M311.932,200.44L311.932,200.44
			c-2.323,0-4.404-0.926-5.934-2.455c-1.535-1.542-2.468-3.624-2.475-5.985c0-0.216,0-0.317,0.017-0.435l0.048-0.399l-0.043-0.172
			l-0.048-0.232c-0.095-0.392-0.202-0.786-0.31-1.157c-0.084-0.277-0.174-0.529-0.253-0.758c-0.024-0.083-0.058-0.209-0.115-0.374
			c-0.13-0.325-0.252-0.651-0.385-0.948c0,0-0.007-0.03-0.043-0.111c-0.76-1.751-1.768-3.304-3.024-4.588
			c-0.004,0-0.021-0.032-0.107-0.118l-0.008-0.015c-2.288-2.284-5.383-3.675-9.026-4.093l-0.133-0.029l-0.058,0.01l-0.069-0.01
			c-0.35,0.01-0.7-0.019-1.042-0.072l-0.043-0.004c-1.812-0.281-3.427-1.132-4.666-2.374c-1.52-1.527-2.457-3.606-2.457-5.942
			c0-2.359,0.937-4.454,2.462-5.978c1.534-1.525,3.611-2.453,5.941-2.453c2.329,0,4.417,0.934,5.953,2.46
			c1.132,1.142,1.95,2.605,2.302,4.222c0.096,0.455,0.15,0.959,0.144,1.453l0.006,0.181l0.01,0.086l0.015,0.079
			c0.064,0.428,0.144,0.851,0.23,1.28c0.61,2.95,1.769,5.733,3.909,7.913c0.029,0.039,0.051,0.071,0.09,0.098
			c0.006,0.01,0.014,0.017,0.014,0.017c2.201,2.21,5.318,3.608,9.264,4.051l0.101,0.015h0.054l0.043,0.001
			c2.183,0.087,4.152,1.005,5.608,2.458c1.52,1.522,2.451,3.614,2.468,5.946c-0.007,2.339-0.948,4.433-2.479,5.975
			C316.354,199.514,314.272,200.44,311.932,200.44"/>
	</g>
	<g id="g148_2_" transform="matrix(0.35277777,0,0,-0.35277777,104.33469,113.85022)">
		<path id="path150" inkscape:connector-curvature="0" fill="#3366CC" d="M303.751,178.439c0-0.634-0.065-1.269-0.188-1.871
			c-0.432-2.011-1.445-3.81-2.855-5.225c-1.881-1.884-4.487-3.056-7.365-3.056c-2.875-0.01-5.469,1.161-7.363,3.055
			c-1.882,1.877-3.051,4.494-3.051,7.394c0,2.882,1.163,5.481,3.045,7.37c1.541,1.528,3.557,2.588,5.812,2.937l0.047,0.008h0.032
			c0.429,0.062,0.85,0.101,1.282,0.089l0.014,0.012h0.014c3.28,0.376,5.898,1.582,7.827,3.511l0.022,0.015l0.078,0.089v0.012
			l-12.763,12.77c-3.913,3.913-10.302,3.913-14.216-0.006L243.29,174.72c-3.905-3.907-3.905-10.3,0-14.206l30.831-30.827
			c3.914-3.917,10.303-3.917,14.215,0l6.431,6.425c-1.103,1.093-2.433,1.946-3.996,2.635c0,0-0.004,0-0.075,0.025
			c-0.298,0.125-0.584,0.235-0.864,0.346c-0.08,0.028-0.192,0.061-0.336,0.111c-0.242,0.089-0.468,0.161-0.68,0.219
			c-0.342,0.1-0.698,0.197-1.057,0.288l-0.043,0.008l-0.044-0.008c-0.241-0.028-0.453-0.03-0.687-0.03
			c-2.894,0-5.507,1.174-7.402,3.07c-1.877,1.884-3.042,4.476-3.042,7.341h1.003h-1.003c0,2.896,1.165,5.489,3.042,7.399
			c1.902,1.875,4.508,3.051,7.402,3.051c2.878,0,5.488-1.167,7.369-3.051c1.792-1.795,2.937-4.242,3.049-6.958v-0.017
			c0.411-3.637,1.64-6.264,3.473-8.089l0.017-0.021c0.033-0.033,0.069-0.057,0.102-0.087l18.165,18.169
			c3.903,3.906,3.913,10.299,0,14.213l-11.826,11.826c-2.029-2.086-3.076-4.879-3.583-8.093V178.439z"/>
	</g>
	<g id="g152" transform="matrix(0.35277777,0,0,-0.35277777,112.41549,110.41512)">
		<path id="path154" inkscape:connector-curvature="0" fill="#3366CC" d="M362.67,203.479h-0.183l-0.08,0.015l-0.089,0.019
			c-0.426,0.061-0.853,0.141-1.279,0.232c-0.233,0.039-0.468,0.108-0.714,0.152c-0.172,0.051-0.357,0.086-0.545,0.143
			c-0.382,0.101-0.77,0.216-1.146,0.346l-0.072,0.022c-2.043,0.692-3.923,1.732-5.5,3.291c-0.028,0.026-0.044,0.043-0.05,0.047
			c-2.206,2.201-3.612,5.326-4.053,9.268l-0.003,0.097l-0.008,0.072v0.028c-0.08,2.19-0.999,4.159-2.458,5.608
			c-1.531,1.518-3.61,2.465-5.943,2.465c-2.347,0-4.446-0.952-5.979-2.465c-1.523-1.543-2.458-3.63-2.464-5.974
			c0-2.321,0.941-4.403,2.464-5.93c1.534-1.529,3.626-2.468,5.988-2.473c0.21,0,0.318,0,0.435,0.019l0.393,0.047l0.177-0.043
			l0.227-0.047c0.401-0.105,0.786-0.201,1.163-0.314c0.282-0.084,0.518-0.173,0.747-0.251c0.094-0.035,0.219-0.073,0.365-0.118
			c0.346-0.12,0.667-0.252,0.98-0.385c0-0.007,0.011,0,0.102-0.044c1.741-0.754,3.297-1.763,4.59-3.017
			c0-0.01,0.019-0.014,0.105-0.115l0.014-0.006c2.3-2.293,3.673-5.381,4.105-9.02l0.017-0.131v-0.055v-0.076
			c0-0.35,0.022-0.693,0.08-1.117v0.071c0.28-1.839,1.129-3.462,2.372-4.706c1.528-1.522,3.61-2.457,5.946-2.457
			c2.359,0,4.446,0.944,5.979,2.464c1.525,1.529,2.458,3.607,2.458,5.938c0,2.324-0.941,4.411-2.475,5.953
			c-1.132,1.138-2.605,1.95-4.216,2.303C363.658,203.437,363.171,203.479,362.67,203.479"/>
	</g>
	<g id="g156_2_" transform="matrix(0.35277777,0,0,-0.35277777,107.80457,104.77618)">
		<path id="path158" inkscape:connector-curvature="0" fill="#3366CC" d="M329.049,244.591l-30.828-30.825
			c-3.911-3.905-3.911-10.302,0.004-14.219l12.767-12.771c1.088,1.11,1.956,2.444,2.627,3.995c0,0,0.007,0.019,0.033,0.097
			c0.129,0.292,0.245,0.57,0.338,0.848c0.028,0.078,0.066,0.195,0.115,0.342c0.082,0.237,0.159,0.468,0.219,0.669
			c0.105,0.352,0.202,0.709,0.28,1.055l0.014,0.05l-0.007,0.058c-0.024,0.234-0.025,0.437-0.025,0.667
			c0,2.907,1.167,5.52,3.064,7.409c1.878,1.884,4.475,3.041,7.348,3.049v-1.01v1.002c2.882,0,5.494-1.157,7.384-3.041
			c1.891-1.889,3.062-4.502,3.062-7.404c0-2.88-1.164-5.475-3.056-7.366c-1.78-1.784-4.223-2.932-6.932-3.045l-0.036-0.003
			c-3.619-0.404-6.238-1.63-8.065-3.441l-0.007-0.006l-0.036-0.035c-0.036-0.035-0.057-0.076-0.094-0.111l11.831-11.827
			c3.907-3.916,10.306-3.916,14.218,0l18.135,18.135c-1.104,1.074-2.439,1.942-3.997,2.62l-0.089,0.042
			c-0.288,0.115-0.584,0.23-0.853,0.331c-0.089,0.029-0.199,0.057-0.343,0.109c-0.238,0.091-0.46,0.169-0.675,0.223
			c-0.343,0.113-0.703,0.195-1.055,0.288l-0.053,0.012h-0.044c-0.233-0.033-0.446-0.033-0.675-0.033c-2.89,0-5.517,1.171-7.397,3.06
			c-1.882,1.878-3.051,4.471-3.056,7.347h1.008h-1.008c0.005,2.887,1.174,5.492,3.056,7.38c1.893,1.898,4.501,3.064,7.397,3.073
			c2.876-0.008,5.481-1.167,7.363-3.059c1.794-1.791,2.934-4.23,3.039-6.938l0.011-0.026c0.404-3.626,1.63-6.237,3.441-8.075
			l0.055-0.043c0.028-0.032,0.055-0.06,0.094-0.087l6.461,6.461c3.914,3.917,3.914,10.314,0,14.219l-30.816,30.825
			C339.355,248.507,332.956,248.507,329.049,244.591"/>
	</g>
	<g id="g160" transform="matrix(0.35277777,0,0,-0.35277777,104.75291,119.5043)">
		<path id="path162" inkscape:connector-curvature="0" fill="#3366CC" d="M306.799,137.221l0.389,0.042l0.179-0.042l0.231-0.053
			c0.394-0.091,0.781-0.202,1.159-0.313c0.277-0.078,0.527-0.169,0.754-0.241c0.094-0.039,0.212-0.066,0.364-0.13
			c0.335-0.122,0.663-0.241,0.977-0.385c0,0,0.014,0,0.101-0.039c1.744-0.758,3.294-1.766,4.591-3.023
			c-0.007-0.011,0.019-0.011,0.112-0.105l0.01-0.011c2.293-2.289,3.678-5.381,4.105-9.016l0.01-0.158v-0.042v-0.075
			c0-0.329,0.026-0.664,0.076-1.063c0.289-1.821,1.146-3.441,2.381-4.681c1.527-1.536,3.608-2.464,5.948-2.464
			c2.353-0.003,4.447,0.941,5.984,2.472c1.518,1.525,2.451,3.607,2.451,5.935c0,2.323-0.933,4.413-2.468,5.954
			c-1.139,1.132-2.599,1.949-4.224,2.303c-0.447,0.089-0.95,0.144-1.455,0.144h-0.172l-0.08,0.011l-0.089,0.011
			c-3.471,0.545-6.778,1.73-9.29,4.227l-0.021,0.022c-2.199,2.198-3.611,5.307-4.053,9.265l-0.01,0.097l-0.007,0.055v0.044
			c-0.078,2.187-1.005,4.152-2.454,5.597c-1.532,1.525-3.611,2.464-5.948,2.472c-2.342,0-4.432-0.952-5.975-2.475
			c-1.518-1.536-2.454-3.624-2.454-5.965c0.003-2.325,0.927-4.41,2.453-5.921c1.539-1.534,3.635-2.475,5.983-2.475
			C306.576,137.199,306.684,137.199,306.799,137.221"/>
	</g>
	<g id="g164_1_" transform="matrix(0.35277777,0,0,-0.35277777,107.88691,117.65084)">
		<path id="path166" inkscape:connector-curvature="0" fill="#3366CC" d="M329.647,150.727l-18.172-18.159
			c2.086-2.035,4.891-3.075,8.101-3.577h0.012h0.006c0.633,0,1.266-0.066,1.873-0.197c2.007-0.424,3.817-1.442,5.221-2.843
			c1.885-1.891,3.06-4.507,3.06-7.375c0-2.884-1.163-5.473-3.044-7.366c-1.893-1.882-4.507-3.056-7.402-3.048
			c-2.878-0.008-5.481,1.163-7.37,3.048c-1.534,1.525-2.592,3.532-2.95,5.869c-0.066,0.424-0.096,0.858-0.1,1.298v0.03
			c-0.383,3.28-1.597,5.907-3.52,7.837l-0.012,0.006c0,0.011,0,0-0.089,0.086h-0.01l-6.437-6.433
			c-3.906-3.911-3.906-10.303,0.007-14.215l30.825-30.835c3.906-3.9,10.305-3.9,14.213,0l30.824,30.829
			c3.911,3.917,3.911,10.309,0,14.22l-12.806,12.811c-2.024-2.071-3.078-4.889-3.574-8.103v-0.019c0-0.626-0.053-1.268-0.188-1.871
			c-0.437-2.024-1.445-3.815-2.846-5.235c-1.893-1.882-4.501-3.051-7.375-3.051c-2.879,0-5.464,1.163-7.361,3.048
			c-1.885,1.885-3.062,4.507-3.062,7.399c0,2.884,1.171,5.481,3.059,7.377c1.536,1.534,3.543,2.594,5.802,2.934l0.053,0.011h0.028
			c0.429,0.055,0.853,0.094,1.287,0.094h0.017h0.011c3.278,0.393,5.896,1.586,7.834,3.516l0.011,0.014l0.078,0.097v0.003
			l-11.793,11.798C339.952,154.642,333.553,154.642,329.647,150.727"/>
	</g>
	<g id="g168_1_" transform="matrix(0.35277777,0,0,-0.35277777,114.45087,113.32003)">
		<path id="path170_1_" inkscape:connector-curvature="0" fill="#3366CC" d="M377.504,182.302c0,0.014,0,0.014-0.005,0.03v0.023
			L377.504,182.302z"/>
	</g>
	<g id="g172" transform="matrix(0.35277777,0,0,-0.35277777,112.88817,117.33115)">
		<path id="path174" inkscape:connector-curvature="0" fill="#3366CC" d="M366.105,153.06c2.198,2.201,5.32,3.614,9.273,4.042
			l0.1,0.025h0.069l0.019,0.008c2.198,0.072,4.163,1.003,5.611,2.454c1.525,1.528,2.472,3.612,2.472,5.946
			c0,2.338-0.947,4.425-2.48,5.975c-1.528,1.523-3.621,2.46-5.963,2.465c-2.32-0.005-4.401-0.943-5.924-2.465
			c-1.531-1.545-2.48-3.626-2.48-5.983c0-0.216,0.005-0.325,0.022-0.436l0.044-0.393l-0.039-0.183l-0.05-0.221
			c-0.097-0.403-0.199-0.779-0.316-1.164c-0.077-0.282-0.163-0.527-0.246-0.758c-0.03-0.093-0.066-0.208-0.119-0.364
			c-0.116-0.342-0.26-0.662-0.382-0.963c0,0-0.006-0.018-0.044-0.109c-0.753-1.744-1.755-3.3-3.028-4.594
			c0,0-0.006-0.003-0.028-0.024c0-0.014-0.022-0.043-0.078-0.079l-0.011-0.029c-2.292-2.285-5.393-3.668-9.013-4.091l-0.147-0.01
			h-0.053h-0.072c-0.343,0-0.692-0.03-1.046-0.082h-0.033c-1.813-0.293-3.435-1.142-4.664-2.371
			c-1.531-1.534-2.458-3.618-2.469-5.952c0.011-2.347,0.952-4.44,2.472-5.988c1.536-1.523,3.61-2.453,5.941-2.453
			c2.317,0,4.413,0.944,5.954,2.475c1.132,1.129,1.949,2.597,2.298,4.227c0.097,0.446,0.152,0.944,0.152,1.442v0.18l0.022,0.086
			v0.078c0.072,0.44,0.149,0.869,0.235,1.29c0.072,0.357,0.166,0.72,0.252,1.077c0.017,0.05,0.025,0.111,0.039,0.169
			c0.673,2.514,1.808,4.858,3.687,6.743C366.1,153.052,366.1,153.06,366.105,153.06"/>
	</g>
	<g id="g176_2_" transform="matrix(0.35277777,0,0,-0.35277777,114.28274,111.25434)">
		<path id="path178" inkscape:connector-curvature="0" fill="#3366CC" d="M376.275,197.362l-6.461-6.476
			c2.082-2.021,4.894-3.067,8.094-3.568h0.008h0.014c0.631,0,1.262-0.061,1.869-0.187c2.013-0.435,3.815-1.449,5.218-2.851
			c1.893-1.895,3.062-4.497,3.062-7.373c0-2.865-1.163-5.473-3.045-7.365c-1.882-1.871-4.501-3.056-7.397-3.056
			c-2.879,0.012-5.489,1.168-7.374,3.056c-1.528,1.535-2.586,3.536-2.951,5.877v-0.037v0.04v-0.003
			c-0.047,0.422-0.089,0.857-0.089,1.286v0.03c-0.399,3.291-1.592,5.905-3.529,7.834v0.018c0,0-0.006-0.003-0.102,0.073
			c0,0.01-0.006,0.01-0.006,0.01l-18.135-18.137c-3.906-3.902-3.906-10.301,0-14.212l11.806-11.795
			c1.082,1.103,1.949,2.429,2.613,3.977c0.003,0,0.008,0.026,0.039,0.097c0.122,0.299,0.249,0.576,0.341,0.866
			c0.028,0.066,0.064,0.188,0.108,0.325c0.08,0.253,0.166,0.471,0.221,0.687c0.105,0.345,0.205,0.699,0.288,1.044l0.006,0.054v0.057
			c-0.028,0.228-0.028,0.443-0.028,0.678c0,2.886,1.174,5.507,3.059,7.404c1.885,1.882,4.487,3.035,7.35,3.041l0.006-0.999v0.999
			c2.879-0.006,5.495-1.159,7.386-3.052c1.882-1.891,3.056-4.507,3.056-7.393c-0.003-2.876-1.168-5.476-3.053-7.37
			c-1.786-1.791-4.233-2.941-6.934-3.046h-0.033c-3.626-0.41-6.237-1.625-8.078-3.441v-0.014l-0.033-0.032
			c-0.03-0.03-0.064-0.083-0.094-0.108l12.8-12.803c3.914-3.906,10.314-3.906,14.215,0l30.83,30.825
			c3.909,3.911,3.909,10.31,0,14.212l-30.824,30.829C386.59,201.269,380.19,201.269,376.275,197.362"/>
	</g>
</g>
<g enable-background="new    ">
	<path fill="#FFFFFF" d="M208.817,48.773c0-5.467,1.132-9.279,3.396-11.438c2.263-2.158,6.272-3.237,12.027-3.237h5.438
		c5.274,0,9.164,0.896,11.667,2.69c2.504,1.794,3.756,4.59,3.756,8.388v1.813h-4.893v-0.518c0-2.954-0.748-5.011-2.244-6.172
		s-4.354-1.741-8.574-1.741h-3.769c-2.935,0-5.045,0.163-6.331,0.489c-1.285,0.327-2.378,0.874-3.28,1.64
		c-0.825,0.71-1.405,1.66-1.741,2.849c-0.336,1.19-0.503,3.329-0.503,6.417v12.2c0,3.069,0.167,5.198,0.503,6.388
		c0.335,1.189,0.916,2.139,1.741,2.849c0.902,0.768,1.976,1.313,3.223,1.64s3.376,0.49,6.388,0.49h3.769
		c2.724,0,4.651-0.145,5.783-0.432c1.132-0.289,2.11-0.777,2.936-1.469c0.767-0.651,1.309-1.543,1.625-2.676
		c0.316-1.131,0.475-3.068,0.475-5.812v-2.647h-11.883v-4.345h16.775v7.165c0,5.487-1.133,9.303-3.396,11.452
		c-2.264,2.148-6.272,3.223-12.027,3.223h-5.438c-5.755,0-9.764-1.074-12.027-3.223c-2.264-2.148-3.396-5.965-3.396-11.452V48.773z"
		/>
</g>
</svg>
