<?xml version="1.0" encoding="utf-8"?>
<!-- Generator: Adobe Illustrator 16.0.3, SVG Export Plug-In . SVG Version: 6.00 Build 0)  -->
<!DOCTYPE svg PUBLIC "-//W3C//DTD SVG 1.1//EN" "http://www.w3.org/Graphics/SVG/1.1/DTD/svg11.dtd">
<svg version="1.1"
	 id="svg244" xmlns:sodipodi="http://sodipodi.sourceforge.net/DTD/sodipodi-0.dtd" xmlns:inkscape="http://www.inkscape.org/namespaces/inkscape" xmlns:svg="http://www.w3.org/2000/svg" xmlns:cc="http://creativecommons.org/ns#" xmlns:dc="http://purl.org/dc/elements/1.1/" xmlns:rdf="http://www.w3.org/1999/02/22-rdf-syntax-ns#" sodipodi:docname="myvariant_info_logo.svg" inkscape:version="0.92.1 r"
	 xmlns="http://www.w3.org/2000/svg" xmlns:xlink="http://www.w3.org/1999/xlink" x="0px" y="0px" width="100px" height="100px"
	 viewBox="176.771 13.352 100 100" enable-background="new 176.771 13.352 100 100" xml:space="preserve">
<g id="g526_1_" transform="matrix(0.28357709,0,0,-0.28357709,132.79223,186.23353)">
	<path id="path528_1_" inkscape:connector-curvature="0" fill="#85D958" d="M331.856,606.748
		c51.021-1.343,101.024-11.051,148.375-33.018c3.885-143.714-52.903-242.852-148.375-313.82V606.748z"/>
</g>
<g id="g70_1_" transform="matrix(0.28357709,0,0,-0.28357709,53.3951,168.27097)">
	<path id="path72_1_" inkscape:connector-curvature="0" fill="#FFFFFF" d="M611.666,543.407
		c-51.021-1.343-101.024-11.051-148.377-33.029c-3.881-143.709,52.906-242.847,148.377-313.815V543.407z"/>
</g>
<sodipodi:namedview  bordercolor="#666666" inkscape:cy="-241.24565" showgrid="false" pagecolor="#ffffff" inkscape:zoom="0.35" fit-margin-top="5" fit-margin-left="5" inkscape:cx="-484.78066" borderopacity="1.0" id="base" inkscape:document-units="mm" fit-margin-right="5" inkscape:current-layer="layer1" inkscape:window-width="2560" inkscape:window-height="1385" inkscape:window-x="0" inkscape:window-y="55" fit-margin-bottom="5" inkscape:pageshadow="2" inkscape:pageopacity="0.0" inkscape:window-maximized="1">
	</sodipodi:namedview>
<g id="g526" transform="matrix(0.28357709,0,0,-0.28357709,132.79223,186.23353)">
	<path id="path528" inkscape:connector-curvature="0" fill="#67CF2E" d="M331.861,606.749
		c-51.021-1.343-101.022-11.051-148.375-33.02c-3.883-143.714,52.904-242.852,148.375-313.82V606.749z"/>
</g>
<g>
	<g id="g128_1_" transform="matrix(0.35277777,0,0,-0.35277777,105.45677,110.73205)">
		<path id="path130_1_" inkscape:connector-curvature="0" fill="#40B307" d="M311.931,204.006"/>
	</g>
	<g id="g132_1_" transform="matrix(0.35277777,0,0,-0.35277777,109.80895,115.08424)">
		<path id="path134_1_" inkscape:connector-curvature="0" fill="#40B307" d="M343.666,172.277"/>
	</g>
	<g id="g136_1_" transform="matrix(0.35277777,0,0,-0.35277777,103.81586,118.94691)">
		<path id="path138_1_" inkscape:connector-curvature="0" fill="#40B307" d="M299.969,144.115v0.025c0,0.011,0,0.017-0.008,0.028
			L299.969,144.115z"/>
	</g>
	<g id="g140_1_" transform="matrix(0.35277777,0,0,-0.35277777,109.41998,113.34346)">
		<path id="path142_1_" inkscape:connector-curvature="0" fill="#40B307" d="M340.821,184.967c0,0.015,0,0.019-0.006,0.032v0.018
			L340.821,184.967z"/>
	</g>
	<g id="g144" transform="matrix(0.35277777,0,0,-0.35277777,105.45677,110.83196)">
		<path id="path146" inkscape:connector-curvature="0" fill="#40B307" d="M311.931,203.275L311.931,203.275
			c-2.323,0-4.404-0.926-5.934-2.455c-1.535-1.542-2.468-3.624-2.475-5.985c0-0.216,0-0.317,0.017-0.435l0.048-0.399l-0.043-0.172
			l-0.048-0.233c-0.096-0.392-0.202-0.786-0.31-1.157c-0.084-0.277-0.174-0.529-0.253-0.758c-0.024-0.083-0.058-0.209-0.115-0.374
			c-0.13-0.325-0.252-0.651-0.385-0.948c0,0-0.007-0.03-0.043-0.111c-0.76-1.751-1.768-3.304-3.024-4.588
			c-0.004,0-0.021-0.032-0.107-0.118l-0.008-0.015c-2.288-2.284-5.383-3.675-9.026-4.093l-0.133-0.029l-0.058,0.01l-0.069-0.01
			c-0.35,0.01-0.7-0.019-1.042-0.072l-0.043-0.004c-1.812-0.281-3.427-1.132-4.666-2.374c-1.52-1.527-2.457-3.606-2.457-5.942
			c0-2.358,0.937-4.454,2.462-5.978c1.534-1.525,3.611-2.453,5.941-2.453s4.417,0.934,5.953,2.46
			c1.132,1.142,1.95,2.605,2.302,4.221c0.095,0.455,0.149,0.959,0.144,1.453l0.006,0.181l0.01,0.086l0.015,0.079
			c0.064,0.428,0.144,0.851,0.23,1.28c0.61,2.95,1.769,5.733,3.909,7.913c0.029,0.039,0.051,0.071,0.09,0.098
			c0.006,0.01,0.014,0.017,0.014,0.017c2.201,2.21,5.318,3.608,9.264,4.051l0.101,0.015h0.054l0.043,0.001
			c2.183,0.087,4.152,1.005,5.608,2.458c1.52,1.523,2.451,3.614,2.468,5.946c-0.007,2.339-0.948,4.433-2.479,5.975
			C316.353,202.349,314.271,203.275,311.931,203.275"/>
	</g>
	<g id="g148_2_" transform="matrix(0.35277777,0,0,-0.35277777,104.33469,113.85022)">
		<path id="path150" inkscape:connector-curvature="0" fill="#40B307" d="M303.749,181.274c0-0.634-0.065-1.269-0.188-1.871
			c-0.432-2.011-1.445-3.81-2.855-5.225c-1.881-1.884-4.487-3.056-7.365-3.056c-2.875-0.01-5.469,1.161-7.363,3.055
			c-1.882,1.877-3.051,4.494-3.051,7.394c0,2.882,1.163,5.481,3.045,7.37c1.54,1.528,3.557,2.588,5.812,2.937l0.047,0.008h0.032
			c0.429,0.062,0.85,0.101,1.282,0.089l0.014,0.012h0.014c3.28,0.376,5.898,1.582,7.827,3.511l0.022,0.015l0.078,0.089v0.012
			l-12.763,12.77c-3.913,3.913-10.302,3.913-14.216-0.006l-30.831-30.824c-3.905-3.907-3.905-10.3,0-14.206l30.831-30.827
			c3.914-3.917,10.303-3.917,14.215,0l6.431,6.428c-1.103,1.091-2.433,1.943-3.996,2.633c0,0-0.004,0-0.075,0.028
			c-0.298,0.123-0.584,0.234-0.864,0.345c-0.08,0.026-0.192,0.061-0.336,0.109c-0.242,0.09-0.468,0.162-0.68,0.221
			c-0.342,0.1-0.698,0.197-1.057,0.288l-0.043,0.008l-0.044-0.008c-0.241-0.03-0.453-0.033-0.686-0.033
			c-2.894,0-5.507,1.174-7.402,3.07c-1.877,1.884-3.042,4.476-3.042,7.341h1.003h-1.003c0,2.896,1.165,5.489,3.042,7.399
			c1.902,1.875,4.508,3.051,7.402,3.051c2.878,0,5.488-1.167,7.369-3.051c1.792-1.795,2.937-4.242,3.049-6.958v-0.017
			c0.411-3.637,1.64-6.264,3.473-8.089l0.017-0.021c0.033-0.033,0.069-0.057,0.102-0.087l18.165,18.169
			c3.903,3.906,3.913,10.299,0,14.213l-11.826,11.826c-2.029-2.086-3.076-4.879-3.583-8.093V181.274z"/>
	</g>
	<g id="g152" transform="matrix(0.35277777,0,0,-0.35277777,112.41549,110.41512)">
		<path id="path154" inkscape:connector-curvature="0" fill="#40B307" d="M362.667,206.313h-0.183l-0.077,0.015l-0.089,0.019
			c-0.426,0.061-0.855,0.141-1.279,0.232c-0.235,0.039-0.471,0.108-0.714,0.152c-0.172,0.051-0.36,0.086-0.548,0.143
			c-0.382,0.101-0.77,0.216-1.146,0.346l-0.072,0.022c-2.043,0.692-3.92,1.732-5.498,3.291c-0.03,0.026-0.047,0.043-0.053,0.047
			c-2.203,2.201-3.613,5.326-4.053,9.268v0.097l-0.011,0.072v0.028c-0.078,2.19-0.999,4.159-2.458,5.608
			c-1.528,1.518-3.61,2.465-5.943,2.465c-2.345,0-4.446-0.952-5.979-2.465c-1.523-1.543-2.455-3.63-2.461-5.974
			c0-2.321,0.938-4.403,2.461-5.93c1.534-1.529,3.629-2.468,5.988-2.473c0.21,0,0.321,0,0.437,0.019l0.393,0.047l0.177-0.043
			l0.224-0.047c0.401-0.104,0.789-0.201,1.165-0.314c0.28-0.084,0.515-0.173,0.747-0.25c0.094-0.035,0.216-0.073,0.365-0.118
			c0.343-0.12,0.664-0.252,0.98-0.385c0-0.007,0.011,0,0.1-0.044c1.741-0.754,3.297-1.763,4.59-3.017
			c0-0.01,0.019-0.014,0.105-0.115l0.014-0.006c2.303-2.293,3.676-5.381,4.108-9.02l0.014-0.131v-0.055v-0.076
			c0-0.35,0.022-0.693,0.08-1.117v0.071c0.282-1.839,1.129-3.462,2.375-4.705c1.528-1.524,3.607-2.458,5.946-2.458
			c2.359,0,4.446,0.944,5.979,2.464c1.522,1.529,2.458,3.607,2.458,5.938c0,2.324-0.941,4.411-2.475,5.953
			c-1.135,1.138-2.608,1.95-4.219,2.303C363.658,206.272,363.171,206.313,362.667,206.313"/>
	</g>
	<g id="g156_2_" transform="matrix(0.35277777,0,0,-0.35277777,107.80457,104.77618)">
		<path id="path158" inkscape:connector-curvature="0" fill="#40B307" d="M329.047,247.426l-30.828-30.825
			c-3.911-3.905-3.911-10.302,0.004-14.219l12.767-12.771c1.088,1.11,1.956,2.444,2.627,3.995c0,0,0.007,0.019,0.033,0.097
			c0.129,0.292,0.245,0.57,0.338,0.848c0.028,0.078,0.066,0.195,0.115,0.342c0.082,0.237,0.159,0.468,0.219,0.669
			c0.105,0.352,0.202,0.709,0.28,1.055l0.014,0.05l-0.007,0.058c-0.023,0.234-0.025,0.437-0.025,0.667
			c0,2.907,1.167,5.52,3.064,7.409c1.878,1.884,4.475,3.041,7.348,3.049v-1.01v1.002c2.882,0,5.494-1.157,7.384-3.041
			c1.891-1.889,3.062-4.503,3.062-7.404c0-2.88-1.164-5.476-3.056-7.366c-1.78-1.784-4.223-2.932-6.932-3.045l-0.036-0.003
			c-3.619-0.404-6.238-1.63-8.065-3.441l-0.007-0.006l-0.036-0.035c-0.036-0.035-0.057-0.076-0.094-0.111l11.831-11.827
			c3.907-3.916,10.307-3.916,14.216,0l18.135,18.135c-1.105,1.074-2.439,1.942-3.995,2.62l-0.089,0.042
			c-0.288,0.115-0.587,0.23-0.855,0.331c-0.089,0.029-0.197,0.057-0.341,0.109c-0.238,0.091-0.46,0.169-0.675,0.223
			c-0.343,0.114-0.703,0.195-1.057,0.288l-0.053,0.012h-0.042c-0.233-0.033-0.448-0.033-0.678-0.033c-2.89,0-5.517,1.171-7.394,3.06
			c-1.882,1.878-3.051,4.471-3.056,7.347h1.008h-1.008c0.005,2.887,1.174,5.492,3.056,7.38c1.893,1.898,4.498,3.064,7.394,3.073
			c2.876-0.008,5.481-1.167,7.366-3.059c1.794-1.791,2.934-4.23,3.039-6.939l0.011-0.026c0.404-3.626,1.63-6.237,3.441-8.075
			l0.053-0.043c0.03-0.032,0.058-0.06,0.097-0.087l6.461,6.461c3.914,3.917,3.914,10.314,0,14.219l-30.818,30.825
			C339.355,251.342,332.955,251.342,329.047,247.426"/>
	</g>
	<g id="g160" transform="matrix(0.35277777,0,0,-0.35277777,104.75291,119.5043)">
		<path id="path162" inkscape:connector-curvature="0" fill="#40B307" d="M306.798,140.056l0.389,0.042l0.179-0.042l0.231-0.053
			c0.394-0.091,0.781-0.202,1.158-0.313c0.277-0.078,0.527-0.169,0.754-0.241c0.094-0.039,0.212-0.066,0.364-0.13
			c0.335-0.122,0.663-0.241,0.977-0.385c0,0,0.014,0,0.101-0.039c1.744-0.758,3.294-1.766,4.591-3.023
			c-0.007-0.011,0.019-0.011,0.112-0.105l0.01-0.011c2.293-2.289,3.678-5.381,4.105-9.016l0.01-0.158v-0.042v-0.075
			c0-0.329,0.026-0.664,0.076-1.063c0.289-1.822,1.146-3.441,2.381-4.681c1.527-1.536,3.608-2.464,5.947-2.464
			c2.353-0.003,4.447,0.941,5.984,2.472c1.518,1.525,2.451,3.607,2.451,5.935c0,2.323-0.933,4.413-2.468,5.954
			c-1.139,1.132-2.599,1.949-4.224,2.303c-0.447,0.089-0.949,0.144-1.455,0.144H328.3l-0.08,0.011l-0.089,0.011
			c-3.471,0.545-6.778,1.73-9.29,4.227l-0.021,0.022c-2.199,2.198-3.611,5.307-4.053,9.265l-0.01,0.097l-0.007,0.055v0.044
			c-0.078,2.187-1.005,4.152-2.454,5.597c-1.532,1.528-3.611,2.464-5.948,2.475c-2.342,0-4.432-0.952-5.975-2.478
			c-1.518-1.536-2.454-3.624-2.454-5.965c0.003-2.325,0.927-4.41,2.453-5.921c1.539-1.534,3.635-2.475,5.984-2.475
			C306.575,140.034,306.683,140.034,306.798,140.056"/>
	</g>
	<g id="g164_1_" transform="matrix(0.35277777,0,0,-0.35277777,107.88691,117.65084)">
		<path id="path166" inkscape:connector-curvature="0" fill="#40B307" d="M329.646,153.563l-18.172-18.158
			c2.086-2.037,4.891-3.078,8.101-3.579h0.012h0.006c0.633,0,1.266-0.066,1.873-0.197c2.007-0.424,3.817-1.442,5.221-2.843
			c1.885-1.891,3.06-4.507,3.06-7.374c0-2.884-1.163-5.473-3.044-7.366c-1.893-1.882-4.507-3.056-7.402-3.048
			c-2.878-0.008-5.481,1.163-7.37,3.048c-1.534,1.525-2.592,3.532-2.95,5.869c-0.066,0.424-0.095,0.858-0.1,1.298v0.03
			c-0.383,3.28-1.597,5.907-3.52,7.837l-0.013,0.006c0,0.011,0,0-0.089,0.086h-0.01l-6.437-6.433
			c-3.906-3.911-3.906-10.303,0.007-14.215l30.825-30.835c3.906-3.9,10.306-3.9,14.215,0l30.821,30.83
			c3.911,3.917,3.911,10.309,0,14.22l-12.806,12.811c-2.021-2.071-3.078-4.889-3.574-8.103v-0.019c0-0.626-0.053-1.268-0.188-1.871
			c-0.435-2.024-1.442-3.815-2.846-5.235c-1.893-1.882-4.501-3.051-7.372-3.051c-2.879,0-5.467,1.163-7.363,3.048
			c-1.882,1.885-3.06,4.507-3.06,7.399c0,2.884,1.17,5.481,3.057,7.377c1.536,1.534,3.546,2.591,5.805,2.934l0.05,0.011h0.028
			c0.429,0.055,0.853,0.094,1.29,0.094h0.014h0.014c3.278,0.393,5.893,1.586,7.831,3.516l0.014,0.014l0.075,0.097v0.003
			l-11.79,11.799C339.952,157.476,333.552,157.476,329.646,153.563"/>
	</g>
	<g id="g168_1_" transform="matrix(0.35277777,0,0,-0.35277777,114.45087,113.32003)">
		<path id="path170_1_" inkscape:connector-curvature="0" fill="#40B307" d="M377.504,185.137c0,0.014,0,0.014-0.008,0.03v0.023
			L377.504,185.137z"/>
	</g>
	<g id="g172" transform="matrix(0.35277777,0,0,-0.35277777,112.88817,117.33115)">
		<path id="path174" inkscape:connector-curvature="0" fill="#40B307" d="M366.105,155.895c2.198,2.201,5.32,3.614,9.273,4.042
			l0.097,0.025h0.069l0.022,0.008c2.195,0.072,4.163,1.003,5.608,2.454c1.528,1.528,2.475,3.612,2.475,5.946
			c0,2.338-0.947,4.425-2.48,5.975c-1.528,1.523-3.621,2.46-5.963,2.465c-2.32-0.005-4.401-0.943-5.924-2.465
			c-1.534-1.545-2.48-3.626-2.48-5.983c0-0.216,0.005-0.325,0.019-0.436l0.047-0.393l-0.042-0.183l-0.047-0.221
			c-0.1-0.403-0.202-0.779-0.316-1.164c-0.08-0.282-0.166-0.527-0.249-0.758c-0.028-0.093-0.066-0.208-0.116-0.364
			c-0.119-0.342-0.26-0.662-0.382-0.963c0,0-0.008-0.018-0.047-0.109c-0.753-1.744-1.752-3.3-3.026-4.594
			c0,0-0.006-0.003-0.03-0.024c0-0.014-0.019-0.043-0.075-0.079l-0.011-0.029c-2.295-2.285-5.393-3.668-9.013-4.091l-0.149-0.01
			h-0.05h-0.075c-0.341,0-0.689-0.03-1.044-0.082h-0.033c-1.813-0.293-3.435-1.141-4.664-2.37c-1.534-1.532-2.458-3.619-2.469-5.953
			c0.011-2.347,0.952-4.44,2.469-5.988c1.539-1.523,3.612-2.453,5.943-2.453c2.314,0,4.413,0.944,5.952,2.475
			c1.132,1.129,1.949,2.597,2.298,4.227c0.1,0.446,0.152,0.944,0.152,1.442v0.18l0.022,0.086v0.078
			c0.075,0.44,0.152,0.869,0.235,1.29c0.072,0.357,0.166,0.72,0.255,1.08c0.017,0.05,0.022,0.108,0.039,0.166
			c0.67,2.515,1.805,4.861,3.684,6.743C366.1,155.886,366.1,155.895,366.105,155.895"/>
	</g>
	<g id="g176_2_" transform="matrix(0.35277777,0,0,-0.35277777,114.28274,111.25434)">
		<path id="path178" inkscape:connector-curvature="0" fill="#40B307" d="M376.275,200.197l-6.464-6.476
			c2.084-2.021,4.894-3.067,8.097-3.568h0.006h0.014c0.634,0,1.265-0.061,1.869-0.187c2.015-0.435,3.815-1.449,5.221-2.851
			c1.893-1.895,3.062-4.497,3.062-7.373c0-2.865-1.163-5.473-3.045-7.365c-1.882-1.871-4.504-3.055-7.397-3.055
			c-2.879,0.011-5.492,1.167-7.374,3.055c-1.531,1.535-2.588,3.536-2.951,5.877v-0.037v0.04v-0.003
			c-0.05,0.422-0.091,0.857-0.091,1.286v0.03c-0.396,3.291-1.592,5.905-3.529,7.834v0.018c0,0-0.005-0.003-0.102,0.073
			c0,0.01-0.003,0.01-0.003,0.01l-18.135-18.137c-3.909-3.902-3.909-10.3,0-14.212l11.804-11.795
			c1.082,1.103,1.952,2.429,2.616,3.977c0,0,0.006,0.026,0.036,0.097c0.122,0.299,0.252,0.576,0.341,0.866
			c0.028,0.066,0.066,0.188,0.111,0.325c0.078,0.253,0.166,0.471,0.221,0.686c0.105,0.345,0.202,0.699,0.288,1.044l0.006,0.054
			v0.057c-0.028,0.228-0.028,0.443-0.028,0.678c0,2.886,1.174,5.507,3.056,7.404c1.888,1.882,4.49,3.035,7.352,3.041l0.006-0.999
			v0.999c2.876-0.006,5.492-1.159,7.383-3.052c1.885-1.891,3.059-4.507,3.059-7.393c-0.006-2.876-1.171-5.476-3.056-7.37
			c-1.783-1.791-4.233-2.941-6.934-3.046h-0.03c-3.626-0.41-6.24-1.625-8.078-3.441v-0.014l-0.036-0.032
			c-0.03-0.03-0.064-0.082-0.094-0.105l12.803-12.806c3.914-3.906,10.314-3.906,14.212,0l30.832,30.825
			c3.909,3.911,3.909,10.31,0,14.212l-30.827,30.83C386.59,204.104,380.19,204.104,376.275,200.197"/>
	</g>
</g>
<g enable-background="new    ">
	<path fill="#FFFFFF" d="M207.808,34.616h5.064l13.668,38.413l13.726-38.413h5.035l-15.682,42.845h-6.129L207.808,34.616z"/>
</g>
</svg>
